
<svg xmlns="http://www.w3.org/2000/svg" viewBox="0 0 240.75 84.16"><defs><style>.cls-1{fill:#00418F;}</style></defs><g id="Layer_2" data-name="Layer 2"><g id="Layer_1-2" data-name="Layer 1"><path class="cls-1" d="M220.11,2.27V60h0c0,4.68,0,7.82-10.58,7.82S199,64.69,199,60h0V2.27H178.87a15.78,15.78,0,0,1,1.41,1.28c5,5.19,5,12.11,5,19.43v5.93h-4V23.07h0c0-6.33,0-11.71-3-15.67h0C174.77,2.72,167,0,150.09,0,130.21,0,123,3.75,120.37,10c-2.62-6.28-9.83-10-29.71-10C75.21,0,67.41,2.26,63.47,6.21c3,4.79,3,10.64,3,16.77v5.93h-4V23.07h0c0-5,0-9.46-1.5-13h0c-.08-.18-.15-.35-.23-.52l-.06-.11a12.24,12.24,0,0,0-.9-1.57l-.12-.17c-.19-.26-.39-.51-.6-.76-.06-.08-.13-.15-.2-.23s-.39-.42-.61-.63L58,5.78C53.87,2.1,46.09,0,31.22,0-.07,0,0,9.27,0,23.07H0v38H0C0,74.89-.07,84.16,31.22,84.16c19.89,0,27.1-3.75,29.72-10,2.62,6.28,9.83,10,29.72,10s27.09-3.75,29.71-10c2.62,6.28,9.84,10,29.72,10s27.1-3.75,29.72-10c2.62,6.28,9.83,10,29.72,10,31.29,0,31.22-9.27,31.22-23.08h0V2.27ZM90.66,67.83c-10.61,0-10.58-3.15-10.58-7.82h0V55.25H41.8V60h0c0,4.68,0,7.82-10.58,7.82S20.64,64.69,20.64,60h0V24.15c0-4.68,0-7.82,10.58-7.82S41.8,19.47,41.8,24.15v4.76H59.51c.26,5.87,1.44,10.6,6.77,13.7,4.56,2.61,11.61,4.72,18.5,6.9,8.65,2.84,16.46,4.5,16.46,10.5C101.24,64.68,101.26,67.83,90.66,67.83Zm28.21-38.49V44.88A12.67,12.67,0,0,0,115,41.55c-5.81-3.5-16.24-5.73-24.37-8.95v0c-6-2.3-10.58-3.22-10.58-8.47,0-4.68,0-7.82,10.58-7.82s10.58,3.14,10.58,7.82h0v4.76h17.63Zm59.44,25.91H160.67V60h0c0,4.68,0,7.82-10.58,7.82S139.51,64.69,139.51,60h0V24.15c0-4.68,0-7.82,10.58-7.82s10.58,3.14,10.58,7.82v4.76h17.64Z"/></g></g></svg>